<?xml version="1.0" encoding="UTF-8"?>
<svg xmlns="http://www.w3.org/2000/svg" id="Icons" viewBox="0 0 60 60" width="512" height="512"><defs><style>.cls-1{fill:#e59015;}.cls-2{fill:#fff;}.cls-3{fill:#ffbd17;}.cls-4{fill:#262626;}</style></defs><path class="cls-1" d="M2.312,21.5a.5.5,0,0,1-.271-.921l4.331-2.793L1.28,20.727a.5.5,0,0,1-.53-.848l9.687-6.561L1.28,18.605a.5.5,0,0,1-.525-.851l5.833-3.841L1.28,16.978a.5.5,0,0,1-.525-.851l4.476-2.948L1.28,15.46a.5.5,0,0,1-.531-.847l4.783-3.244L1.28,13.824a.5.5,0,0,1-.535-.844l3.531-2.446-3,1.73a.5.5,0,0,1-.556-.829l4.2-3.244L1.28,10.3a.5.5,0,0,1-.588-.8l3-2.745L1.28,8.141a.5.5,0,0,1-.656-.726L1.9,5.651l-.032.018a.5.5,0,0,1-.5-.866L3.414,3.62a.5.5,0,0,1,.656.725L2.8,6.109,7.15,3.6a.5.5,0,0,1,.588.8l-3,2.745L10.882,3.6a.5.5,0,0,1,.556.829L7.236,7.67,14.291,3.6a.5.5,0,0,1,.535.844L11.3,6.886l5.7-3.289a.5.5,0,0,1,.53.846L12.738,7.689l6.691-3.862a.5.5,0,0,1,.525.85L15.477,7.626l5.358-3.093a.5.5,0,0,1,.525.851L15.527,9.225,22,5.485a.5.5,0,0,1,.531.847l-9.686,6.56L23.508,6.738a.5.5,0,0,1,.521.853l-4.336,2.8,4.852-2.8a.5.5,0,0,1,.522.853l-3.241,2.094,3.936-2.273a.5.5,0,0,1,.525.851l-4.071,2.669L27.729,8.6a.5.5,0,0,1,.528.848l-5.246,3.508L30.555,8.6a.5.5,0,0,1,.527.849l-4.629,3.072L33.243,8.6a.5.5,0,0,1,.52.854l-.583.374L35.307,8.6a.5.5,0,0,1,.52.854l-.786.5L37.394,8.6a.5.5,0,0,1,.539.841L29.9,15.12,41.2,8.6a.5.5,0,0,1,.528.849l-4.978,3.316L43.96,8.6a.5.5,0,0,1,.534.844l-7.21,4.988L47.386,8.6a.5.5,0,0,1,.539.841l-8.055,5.7L51.2,8.6a.5.5,0,0,1,.531.846l-6.289,4.273L54.309,8.6a.5.5,0,0,1,.528.848l-5.389,3.611L56.819,8.8a.5.5,0,0,1,.532.846l-6.113,4.162,6.908-3.989a.5.5,0,0,1,.535.845l-5.474,3.79L58.7,11.282a.5.5,0,0,1,.529.847l-1.8,1.212,1.291-.745a.5.5,0,0,1,.537.842l-2.038,1.43L58.729,14a.5.5,0,0,1,.58.809l-3.647,3.2,3.073-1.774a.5.5,0,0,1,.6.791l-1.553,1.511.96-.554a.5.5,0,0,1,.683.683l-.56.968a.507.507,0,0,1,.566.233.5.5,0,0,1-.183.683l-1.484.857a.5.5,0,0,1-.683-.683l.543-.941-2.814,1.625a.5.5,0,0,1-.6-.791L55.763,19.1l-3.991,2.3a.5.5,0,0,1-.58-.809l3.647-3.2-6.947,4.011a.5.5,0,0,1-.538-.842l2.035-1.427-3.932,2.27a.5.5,0,0,1-.529-.847l1.8-1.215-3.575,2.064a.5.5,0,0,1-.534-.845l5.47-3.787-8.025,4.633a.5.5,0,0,1-.531-.846l6.112-4.162-8.676,5.01a.5.5,0,0,1-.529-.849l5.39-3.611L34.1,21.416a.5.5,0,0,1-.531-.847l6.29-4.273-8.87,5.122a.5.5,0,0,1-.539-.841l8.053-5.7L27.176,21.42a.5.5,0,0,1-.534-.844l7.212-4.989L23.748,21.421a.5.5,0,0,1-.528-.849l4.98-3.318-7.22,4.169a.5.5,0,0,1-.539-.841L28.475,14.9l-11.3,6.524a.5.5,0,0,1-.52-.854l.792-.508-2.361,1.363a.5.5,0,0,1-.52-.854l.575-.369-2.12,1.224a.5.5,0,0,1-.526-.849l4.63-3.072-6.794,3.922A.5.5,0,0,1,9.8,20.58l5.248-3.509L7.5,21.43a.5.5,0,0,1-.524-.851l4.07-2.67-6.1,3.522a.5.5,0,0,1-.521-.853l3.242-2.094L2.562,21.433A.5.5,0,0,1,2.312,21.5Z"/><path class="cls-2" d="M6.863,19.5a.5.5,0,0,1-.305-.9l1.775-1.366L6.28,18.423a.5.5,0,0,1-.584-.806l1.947-1.742-1.363.787a.5.5,0,0,1-.635-.752l.973-1.175a.486.486,0,0,1-.438-.25.5.5,0,0,1,.183-.683L8.412,12.62a.5.5,0,0,1,.634.752L8.192,14.4,11.32,12.6a.5.5,0,0,1,.584.8L9.958,15.145,14.371,12.6a.5.5,0,0,1,.554.829l-1.774,1.365,3.8-2.194a.5.5,0,0,1,.555.829L15.735,14.79l3.8-2.193a.5.5,0,0,1,.545.837l-.579.421,2.18-1.258a.5.5,0,0,1,.546.836l-.756.554,2.408-1.39a.5.5,0,0,1,.573.815l-2.777,2.346L27.149,12.6a.5.5,0,0,1,.581.807L24.708,16.08,30.741,12.6a.5.5,0,0,1,.567.82l-2.489,2.029L33.754,12.6a.5.5,0,0,1,.574.814l-2.814,2.395L37.071,12.6a.5.5,0,0,1,.588.8l-3.13,2.865L40.88,12.6a.5.5,0,0,1,.549.834l-1.105.821L43.192,12.6a.5.5,0,0,1,.55.833l-1.224.916,3.03-1.749a.5.5,0,0,1,.572.815l-2.743,2.312L48.793,12.6a.5.5,0,0,1,.58.808L46.4,16.018l5.516-3.185a.5.5,0,0,1,.555.83l-1.456,1.122L53,13.637a.5.5,0,0,1,.571.816l-1.449,1.214,1.495-.864a.5.5,0,0,1,.572.816l-.277.233a.505.505,0,0,1,.4.128.5.5,0,0,1,.115.579l-.564,1.215a.5.5,0,0,1,.38.916l-1.237.714a.5.5,0,0,1-.7-.644l.551-1.188-3.175,1.834a.5.5,0,0,1-.573-.816l.1-.085-1.562.9a.5.5,0,0,1-.572-.816l1.45-1.215-3.519,2.033a.5.5,0,0,1-.555-.829l1.455-1.122-3.382,1.953a.5.5,0,0,1-.58-.809l2.974-2.612-5.929,3.423a.5.5,0,0,1-.572-.816l2.743-2.312-5.42,3.13a.5.5,0,0,1-.55-.834l1.226-.916-3.034,1.751a.5.5,0,0,1-.549-.834l1.1-.821-2.869,1.656a.5.5,0,0,1-.587-.8l3.129-2.865L27.254,19.42a.5.5,0,0,1-.574-.814l2.815-2.4-5.562,3.211a.5.5,0,0,1-.566-.821l2.488-2.029-4.938,2.852a.5.5,0,0,1-.582-.808l3.021-2.675L17.32,19.426a.5.5,0,0,1-.572-.815l2.776-2.346-5.479,3.163a.5.5,0,0,1-.545-.836l.755-.554-2.41,1.392a.5.5,0,0,1-.545-.838l.579-.421L9.7,19.431a.5.5,0,0,1-.554-.829l1.772-1.364-3.8,2.2A.5.5,0,0,1,6.863,19.5Z"/><path class="cls-3" d="M6.682,56.47a.5.5,0,0,1-.262-.926l21.641-13.31L3.64,56.333a.5.5,0,0,1-.507-.861l1.077-.645-1.721.993a.5.5,0,0,1-.51-.859L22.838,42.246,1.5,54.563A.5.5,0,0,1,1,53.7l16.5-9.994L1.28,53.07a.5.5,0,0,1-.513-.858L27.84,35.495,1.28,50.829a.5.5,0,0,1-.511-.859L19.787,38.343,1.28,49.027a.5.5,0,0,1-.512-.858L19.381,36.732,1.28,47.183a.5.5,0,0,1-.509-.861l4.072-2.459L1.28,45.92a.5.5,0,0,1-.512-.858l13.961-8.586L1.28,44.24a.5.5,0,0,1-.511-.859l7.674-4.688L1.28,42.829a.5.5,0,0,1-.515-.856l14.1-8.789L1.28,41.023a.5.5,0,0,1-.516-.855l13.662-8.6L1.28,39.158a.5.5,0,0,1-.522-.852L16.465,28.119,1.28,36.886a.5.5,0,0,1-.515-.857L6.529,32.42,1.28,35.45A.5.5,0,0,1,.763,34.6l5.279-3.329L1.28,34.015a.5.5,0,0,1-.529-.848l10.806-7.245L1.28,31.855a.5.5,0,0,1-.535-.843l9.372-6.5-8.837,5.1a.5.5,0,0,1-.539-.841L7.6,23.933,1.28,27.581a.5.5,0,0,1-.532-.846L3.289,25,1.28,26.156a.5.5,0,0,1-.55-.834l3.527-2.636L1.28,24.405a.5.5,0,0,1-.586-.8l3.092-2.808L1.28,22.241a.5.5,0,0,1-.659-.72l1.336-1.905-.093.053a.5.5,0,0,1-.5-.866l2.05-1.183a.5.5,0,0,1,.659.72L2.737,20.245,7.324,17.6a.5.5,0,0,1,.586.8L4.819,21.207l6.253-3.61a.5.5,0,0,1,.549.833L8.1,21.066,14.1,17.6a.5.5,0,0,1,.532.845l-2.544,1.741,4.48-2.586a.5.5,0,0,1,.538.841l-6.858,4.844L20.1,17.6a.5.5,0,0,1,.534.844l-9.37,6.5L23.977,17.6a.5.5,0,0,1,.528.848L13.7,25.692,27.718,17.6a.5.5,0,0,1,.516.856l-5.276,3.328L30.2,17.6a.5.5,0,0,1,.515.857l-5.762,3.608L32.69,17.6a.5.5,0,0,1,.523.852L17.508,28.635,36.626,17.6a.5.5,0,0,1,.517.856l-13.663,8.6L39.856,17.6a.5.5,0,0,1,.515.857L26.28,27.24l16.7-9.643a.5.5,0,0,1,.511.86l-7.678,4.689L45.428,17.6a.5.5,0,0,1,.511.859L31.97,27.046,48.338,17.6a.5.5,0,0,1,.509.861l-4.062,2.453L50.524,17.6a.5.5,0,0,1,.512.859L32.422,29.893l21.3-12.3a.5.5,0,0,1,.51.86L35.211,30.084l21.4-12.355a.5.5,0,0,1,.513.858L30.055,35.3l28.22-16.294a.5.5,0,0,1,.509.861l-16.5,9.993,16.421-9.481a.5.5,0,0,1,.51.86L38.357,33.957,58.72,22.2a.5.5,0,0,1,.507.862l-1.091.653.584-.338a.5.5,0,0,1,.511.859L37.59,37.548l21.13-12.2a.5.5,0,0,1,.514.858L35.686,40.9,58.72,27.6a.5.5,0,0,1,.514.857L39.873,40.508,58.72,29.627a.5.5,0,0,1,.512.858L45.346,39.076,58.72,31.354a.5.5,0,0,1,.515.857L44.291,41.567l14.429-8.33a.5.5,0,0,1,.513.858L50.74,39.354l7.98-4.606a.5.5,0,0,1,.52.854L44.775,44.884,58.72,36.833a.5.5,0,0,1,.524.851l-14.1,9.276L58.72,39.122a.5.5,0,0,1,.517.856l-5.222,3.305,4.7-2.716a.5.5,0,0,1,.526.85l-9.022,5.975,8.5-4.905a.5.5,0,0,1,.523.852l-4.5,2.932,3.977-2.3a.5.5,0,0,1,.524.85l-2.818,1.847,2.294-1.324a.5.5,0,0,1,.537.841l-5.235,3.672,4.7-2.712a.5.5,0,0,1,.538.841L56.3,50.079l2.416-1.394a.5.5,0,0,1,.552.831l-2.725,2.071,2.173-1.254a.5.5,0,0,1,.559.825l-1.163.917.6-.347a.5.5,0,0,1,.619.77l-1.3,1.42.476-.274a.5.5,0,0,1,.5.865L55.733,56.4a.5.5,0,0,1-.619-.77l1.3-1.418L52.621,56.4a.5.5,0,0,1-.559-.825l1.164-.918L50.205,56.4a.5.5,0,0,1-.553-.831L52.374,53.5l-5.022,2.9a.5.5,0,0,1-.539-.84l2.958-2.09L44.693,56.4a.5.5,0,0,1-.537-.841l5.236-3.673L41.572,56.4a.5.5,0,0,1-.524-.85l2.816-1.846-4.67,2.7a.5.5,0,0,1-.523-.851l4.5-2.934L36.616,56.4a.5.5,0,0,1-.526-.849l9.021-5.975L33.291,56.4a.5.5,0,0,1-.518-.855l5.219-3.3-7.2,4.159a.5.5,0,0,1-.525-.85l14.1-9.278L26.823,56.4a.5.5,0,0,1-.52-.853l14.465-9.282L23.212,56.4a.5.5,0,0,1-.513-.857l8.492-5.26L20.6,56.4a.5.5,0,0,1-.515-.856l14.941-9.355L17.334,56.4a.5.5,0,0,1-.513-.857l13.891-8.593L14.343,56.4a.5.5,0,0,1-.514-.857l19.36-12.054L10.826,56.4a.5.5,0,0,1-.514-.856L33.86,40.855,6.932,56.4A.5.5,0,0,1,6.682,56.47Z"/><path class="cls-4" d="M59.717,20.824C59.215,16.68,62,7.915,55.172,8.689c-8.9-.01-17.81.016-26.715,0C24.9,8.644,23.44,4.937,20.3,3.945,15.749,4.211.41,1.093.275,7.336.287,22.427.229,37.518.267,52.611c.156,5.63,7.07,3.516,10.783,3.905H54.909c3.65.49,5.4-2.737,4.823-5.993C59.607,40.631,60.017,30.708,59.717,20.824ZM2.432,4.946C7.377,3.4,13.478,4.6,18.747,4.424c5.543,3.174,6.492,5.9,13.871,4.886H52.6c6.7-1.067,5.8,3.983,5.7,8.9a5.466,5.466,0,0,0-3.565-.728C55.375,9.2,43.343,13.849,38.3,12.71H11.559c-3.163-.457-7.007.908-6.3,4.77a5.381,5.381,0,0,0-3.536.818C2.174,13.95.743,8.969,2.432,4.946Zm4.29,12.53c-1.368-7.349,11.139-3.158,15.566-4.188q14.051.011,28.1,0c2.582.093,2.855,2.2,2.883,4.2C37.755,17.5,22.239,17.465,6.722,17.476Zm51.545,4.945c-1.014,5.15,2.464,33.246-2.2,33.064-17.317-.018-34.647.025-51.953,0-4.662-.74-1.518-12.5-2.385-16.311,0-6.049-.252-12.157,0-18.2.114-2.731,2.457-2.457,4.379-2.457H38.654C43.229,19.65,59.531,15.229,58.267,22.421Z"/></svg>
