<svg id="Layer_1" enable-background="new 0 0 512 512" height="512" viewBox="0 0 512 512" width="512" xmlns="http://www.w3.org/2000/svg"><g><g><path d="m382.85 141.5v273.21c0 22.8-19.08 41.29-42.61 41.29h-168.48c-23.53 0-42.61-18.49-42.61-41.29v-317.42c0-22.8 19.08-41.29 42.61-41.29h122.87c2.1 0 4.14.44 6.01 1.27 1.57.68 3.01 1.65 4.25 2.85l73.73 71.46c1.23 1.2 2.22 2.59 2.92 4.1.21.45.4.92.56 1.39.17.47.31.95.41 1.44.12.49.2.99.25 1.49.06.5.09 1 .09 1.5z" fill="#ed1c24"/><path d="m340.24 461h-168.48c-26.25 0-47.61-20.77-47.61-46.29v-317.42c0-25.52 21.36-46.29 47.61-46.29h122.87c2.79 0 5.5.57 8.04 1.7 2.08.9 4.01 2.19 5.7 3.83l73.73 71.46c1.68 1.64 3.02 3.52 3.98 5.59.28.6.54 1.24.76 1.88.22.6.42 1.29.56 1.96.15.65.27 1.33.34 2.04.08.68.12 1.37.12 2.05v273.21c-.01 25.51-21.37 46.28-47.62 46.28zm-168.48-400c-20.74 0-37.61 16.28-37.61 36.29v317.42c0 20.01 16.87 36.29 37.61 36.29h168.48c20.74 0 37.61-16.28 37.61-36.29v-273.21c0-.3-.02-.6-.05-.9 0-.03-.01-.07-.01-.1-.03-.29-.07-.56-.13-.8-.02-.06-.03-.13-.04-.19-.05-.23-.12-.48-.21-.74-.13-.38-.25-.68-.39-.97-.45-.98-1.08-1.86-1.88-2.64l-73.72-71.45c-.82-.79-1.74-1.41-2.76-1.85-1.3-.58-2.64-.86-4.02-.86z" fill="#231f20"/></g><g><g><path d="m381.54 135.68h-80.9v-78.41c1.57.68 3.01 1.65 4.25 2.85l73.73 71.46c1.23 1.2 2.22 2.59 2.92 4.1z" fill="#fff"/><path d="m381.54 140.68h-80.9c-2.76 0-5-2.24-5-5v-78.41c0-1.68.85-3.26 2.26-4.18s3.19-1.08 4.73-.41c2.12.92 4.05 2.21 5.74 3.84l73.73 71.46c1.68 1.64 3.02 3.52 3.98 5.59.72 1.55.6 3.36-.32 4.79-.92 1.45-2.51 2.32-4.22 2.32zm-75.9-10h64.87l-64.87-62.87z" fill="#231f20"/></g></g><g fill="#fff"><path d="m209.88 223.21c-3.37-1.81-7.27-2.71-11.69-2.71h-15.09-7.28-6.1v71h13.38v-27.54h15.09c4.43 0 8.32-.9 11.69-2.69s5.98-4.32 7.84-7.59 2.78-7.07 2.78-11.4-.93-8.14-2.78-11.43c-1.86-3.28-4.47-5.83-7.84-7.64zm-4.27 23.66c-.68 1.34-1.64 2.37-2.86 3.1s-2.63 1.1-4.22 1.1h-15.43v-17.68h15.43c1.63 0 3.05.37 4.27 1.1s2.16 1.77 2.83 3.12 1 2.9 1 4.66c0 1.74-.34 3.26-1.02 4.6z"/><path d="m269.65 223.48c-4.18-1.99-9.24-2.98-15.16-2.98h-10.11-6.64-6.74v71h6.74 6.64 10.06c6.09 0 11.23-1.06 15.43-3.17 4.2-2.12 7.35-5.08 9.45-8.89s3.15-8.27 3.15-13.38v-20.12c0-5.37-1.09-9.96-3.27-13.77-2.19-3.81-5.37-6.7-9.55-8.69zm-1.05 42.97c0 3.87-1.2 6.87-3.61 8.98-2.41 2.12-5.81 3.17-10.21 3.17h-10.4v-45.21h10.4c4.39 0 7.8 1.06 10.21 3.17 2.41 2.12 3.61 5.11 3.61 8.98z"/><path d="m342.28 233.39v-12.89h-33.25-8.5-4.88v71h13.38v-28.18h27.88v-12.89h-27.88v-17.04z"/></g><g opacity=".2"><g><g fill="#231f20"><path d="m382.84 141.51v73.85l-82.2-79.68h80.89c.86 1.81 1.31 3.8 1.31 5.83z"/><path d="m382.85 219.36c-1.02 0-2.02-.39-2.79-1.13l-82.2-79.68c-1.17-1.13-1.53-2.86-.92-4.37s2.08-2.5 3.71-2.5h80.89c1.55 0 2.96.9 3.62 2.3 1.1 2.35 1.69 4.95 1.69 7.53v73.85c0 1.61-.96 3.06-2.44 3.68-.51.22-1.04.32-1.56.32zm-72.33-79.68 68.33 66.23v-64.41c0-.61-.06-1.22-.18-1.83h-68.15z"/></g></g></g></g></svg>