<svg id="Layer_1" enable-background="new 0 0 512 512" height="512" viewBox="0 0 512 512" width="512" xmlns="http://www.w3.org/2000/svg"><g><g><path d="m294.63 56h-122.87c-23.53 0-42.6 18.49-42.6 41.29v317.41c0 22.81 19.07 41.29 42.6 41.29h168.49c23.53 0 42.6-18.49 42.6-41.29v-273.2c0-3.73-1.53-7.3-4.25-9.94l-73.71-71.45c-2.72-2.63-6.41-4.11-10.26-4.11z" fill="#00733b"/><path d="m340.24 461h-168.48c-26.25 0-47.6-20.77-47.6-46.29v-317.42c0-25.53 21.35-46.29 47.6-46.29h122.88c5.18 0 10.06 1.96 13.74 5.53l73.71 71.45c3.67 3.55 5.77 8.48 5.77 13.53v273.2c-.01 25.52-21.37 46.29-47.62 46.29zm-168.48-400c-20.73 0-37.6 16.28-37.6 36.29v317.41c0 20.01 16.87 36.29 37.6 36.29h168.49c20.73 0 37.6-16.28 37.6-36.29v-273.2c0-2.39-.97-4.65-2.73-6.35l-73.71-71.45c-1.78-1.72-4.25-2.71-6.78-2.71h-122.87z" fill="#231f20"/></g><g fill="#fff"><path d="m226.53 220.5h-14.11l-13.35 22.83-13.5-22.83h-14.12l20.61 34.79-21.19 36.21h14.11l14.18-24.23 14.34 24.23h14.11l-21.46-36.17z"/><path d="m249.77 220.5h-13.37v71h5.95 7.42 34.18v-12.89h-34.18z"/><path d="m338.1 259.2c-2.02-2.78-4.53-4.8-7.54-6.05s-6.76-2.32-11.26-3.2c-.2-.03-.38-.07-.56-.12s-.37-.09-.56-.12c-.13-.03-.26-.06-.39-.07-.13-.02-.26-.04-.39-.07-3.12-.62-5.55-1.2-7.28-1.76-1.73-.55-3.17-1.42-4.35-2.61-1.17-1.19-1.76-2.81-1.76-4.86v-.05c0-2.44 1.12-4.34 3.37-5.69s5.42-2.03 9.52-2.03c2.73 0 5.59.52 8.57 1.56s5.83 2.51 8.57 4.39l5.66-11.33c-2.28-1.56-4.69-2.9-7.23-4-2.54-1.11-5.14-1.95-7.79-2.54s-5.25-.88-7.79-.88c-5.53 0-10.25.85-14.16 2.56s-6.88 4.19-8.94 7.45c-2.05 3.26-3.08 7.18-3.08 11.77v.05c0 5.18 1.09 9.17 3.27 11.99s4.83 4.79 7.96 5.91c3.12 1.12 7.06 2.06 11.82 2.81l1.07.15c.1.03.19.05.27.05s.17.02.27.05c2.7.42 4.91.9 6.64 1.42s3.12 1.34 4.2 2.44c1.07 1.11 1.61 2.6 1.61 4.49v.05c0 2.7-1.2 4.79-3.61 6.27s-5.79 2.22-10.16 2.22c-3.78 0-7.45-.61-11.04-1.83-3.58-1.22-6.74-2.95-9.47-5.2l-6.2 11.04c2.25 1.86 4.79 3.44 7.64 4.76s5.89 2.32 9.13 3 6.55 1.03 9.94 1.03c5.7 0 10.57-.85 14.62-2.54s7.14-4.15 9.25-7.37c2.12-3.22 3.17-7.1 3.17-11.62v-.1c.04-4.84-.97-8.64-2.99-11.42z"/></g><g><g><path d="m381.54 135.68h-80.9v-78.41c1.57.68 3.01 1.65 4.25 2.85l73.73 71.46c1.23 1.2 2.22 2.59 2.92 4.1z" fill="#fff"/><path d="m381.54 140.68h-80.9c-2.76 0-5-2.24-5-5v-78.41c0-1.68.85-3.26 2.26-4.18s3.19-1.08 4.73-.41c2.12.92 4.05 2.21 5.74 3.84l73.73 71.46c1.68 1.64 3.02 3.52 3.98 5.59.72 1.55.6 3.36-.32 4.79-.92 1.45-2.51 2.32-4.22 2.32zm-75.9-10h64.87l-64.87-62.87z" fill="#231f20"/></g></g><g opacity=".2"><g><g fill="#231f20"><path d="m382.84 141.51v73.85l-82.2-79.68h80.89c.86 1.81 1.31 3.8 1.31 5.83z"/><path d="m382.85 219.36c-1.02 0-2.02-.39-2.79-1.13l-82.2-79.68c-1.17-1.13-1.53-2.86-.92-4.37s2.08-2.5 3.71-2.5h80.89c1.55 0 2.96.9 3.62 2.3 1.1 2.35 1.69 4.95 1.69 7.53v73.85c0 1.61-.96 3.06-2.44 3.68-.51.22-1.04.32-1.56.32zm-72.33-79.68 68.33 66.23v-64.41c0-.61-.06-1.22-.18-1.83h-68.15z"/></g></g></g></g></svg>