<svg id="Layer_1" enable-background="new 0 0 512 512" height="512" viewBox="0 0 512 512" width="512" xmlns="http://www.w3.org/2000/svg"><g><g><path d="m294.63 56h-122.87c-23.53 0-42.6 18.49-42.6 41.29v317.41c0 22.81 19.07 41.29 42.6 41.29h168.49c23.53 0 42.6-18.49 42.6-41.29v-273.2c0-3.73-1.53-7.3-4.25-9.94l-73.71-71.45c-2.72-2.63-6.41-4.11-10.26-4.11z" fill="#0263d1"/><path d="m340.24 461h-168.48c-26.25 0-47.6-20.77-47.6-46.29v-317.42c0-25.53 21.35-46.29 47.6-46.29h122.88c5.18 0 10.06 1.96 13.74 5.53l73.71 71.45c3.67 3.55 5.77 8.48 5.77 13.53v273.2c-.01 25.52-21.37 46.29-47.62 46.29zm-168.48-400c-20.73 0-37.6 16.28-37.6 36.29v317.41c0 20.01 16.87 36.29 37.6 36.29h168.49c20.73 0 37.6-16.28 37.6-36.29v-273.2c0-2.39-.97-4.65-2.73-6.35l-73.71-71.45c-1.78-1.72-4.25-2.71-6.78-2.71h-122.87z" fill="#231f20"/></g><g fill="#fff"><path d="m216.23 232.17c-2.18-3.81-5.36-6.7-9.55-8.69-4.18-1.98-9.23-2.98-15.16-2.98h-23.48v71h23.43c6.09 0 11.23-1.06 15.43-3.18 4.2-2.11 7.35-5.07 9.45-8.88s3.15-8.27 3.15-13.38v-20.12c0-5.37-1.09-9.96-3.27-13.77zm-10.6 34.28c0 3.87-1.2 6.87-3.61 8.98-2.41 2.12-5.81 3.18-10.2 3.18h-10.4v-45.22h10.4c4.39 0 7.79 1.06 10.2 3.18 2.41 2.11 3.61 5.11 3.61 8.98z"/><path d="m278.88 232.2c-2.15-3.96-5.19-7.02-9.11-9.18-3.92-2.17-8.46-3.25-13.6-3.25s-9.68 1.08-13.6 3.25c-3.92 2.16-6.96 5.22-9.1 9.18-2.15 3.95-3.23 8.53-3.23 13.74v20.12c0 5.21 1.08 9.79 3.23 13.74 2.14 3.96 5.18 7.02 9.1 9.18 3.92 2.17 8.46 3.25 13.6 3.25s9.68-1.08 13.6-3.25c3.92-2.16 6.96-5.22 9.11-9.18 2.14-3.95 3.22-8.53 3.22-13.74v-20.12c0-5.21-1.08-9.79-3.22-13.74zm-10.65 34.2c0 2.47-.5 4.66-1.49 6.54-.99 1.89-2.4 3.35-4.22 4.37-1.83 1.03-3.94 1.54-6.35 1.54s-4.52-.51-6.35-1.54c-1.82-1.02-3.23-2.48-4.22-4.37-.99-1.88-1.49-4.07-1.49-6.54v-20.8c0-2.47.5-4.66 1.49-6.54.99-1.89 2.4-3.35 4.22-4.37 1.83-1.03 3.94-1.54 6.35-1.54s4.52.51 6.35 1.54c1.82 1.02 3.23 2.48 4.22 4.37.99 1.88 1.49 4.07 1.49 6.54z"/><path d="m327.75 273.77c-1.07 1.66-2.39 2.92-3.96 3.78-1.56.86-3.32 1.29-5.27 1.29-2.51 0-4.64-.51-6.4-1.54-1.76-1.02-3.1-2.51-4.03-4.47-.93-1.95-1.39-4.31-1.39-7.08v-19.48c0-2.77.46-5.13 1.39-7.1s2.27-3.47 4.03-4.49c1.76-1.03 3.89-1.54 6.4-1.54 1.92 0 3.65.44 5.2 1.32s2.86 2.15 3.95 3.81 1.9 3.66 2.42 6.01h13.87c-.88-5.18-2.47-9.59-4.76-13.26-2.29-3.66-5.2-6.45-8.72-8.37s-7.5-2.88-11.96-2.88c-5.4 0-10.03 1.04-13.87 3.12s-6.77 5.1-8.79 9.06c-2.02 3.95-3.03 8.73-3.03 14.33v19.48c0 5.6 1.01 10.38 3.03 14.33s4.95 6.97 8.79 9.03c3.84 2.07 8.46 3.1 13.87 3.1 4.46 0 8.44-.96 11.94-2.88s6.4-4.71 8.69-8.37 3.9-8.08 4.81-13.26h-13.86c-.49 2.39-1.27 4.4-2.35 6.06z"/></g><g><g><path d="m381.54 135.68h-80.9v-78.41c1.57.68 3.01 1.65 4.25 2.85l73.73 71.46c1.23 1.2 2.22 2.59 2.92 4.1z" fill="#fff"/><path d="m381.54 140.68h-80.9c-2.76 0-5-2.24-5-5v-78.41c0-1.68.85-3.26 2.26-4.18s3.19-1.08 4.73-.41c2.12.92 4.05 2.21 5.74 3.84l73.73 71.46c1.68 1.64 3.02 3.52 3.98 5.59.72 1.55.6 3.36-.32 4.79-.92 1.45-2.51 2.32-4.22 2.32zm-75.9-10h64.87l-64.87-62.87z" fill="#231f20"/></g></g><g opacity=".2"><g><g fill="#231f20"><path d="m382.84 141.51v73.85l-82.2-79.68h80.89c.86 1.81 1.31 3.8 1.31 5.83z"/><path d="m382.85 219.36c-1.02 0-2.02-.39-2.79-1.13l-82.2-79.68c-1.17-1.13-1.53-2.86-.92-4.37s2.08-2.5 3.71-2.5h80.89c1.55 0 2.96.9 3.62 2.3 1.1 2.35 1.69 4.95 1.69 7.53v73.85c0 1.61-.96 3.06-2.44 3.68-.51.22-1.04.32-1.56.32zm-72.33-79.68 68.33 66.23v-64.41c0-.61-.06-1.22-.18-1.83h-68.15z"/></g></g></g></g></svg>