<svg id="Layer_1" enable-background="new 0 0 512 512" height="512" viewBox="0 0 512 512" width="512" xmlns="http://www.w3.org/2000/svg"><g><g><path d="m294.63 56h-122.87c-23.53 0-42.6 18.49-42.6 41.29v317.41c0 22.81 19.07 41.29 42.6 41.29h168.49c23.53 0 42.6-18.49 42.6-41.29v-273.2c0-3.73-1.53-7.3-4.25-9.94l-73.71-71.45c-2.72-2.63-6.41-4.11-10.26-4.11z" fill="#90c"/><path d="m340.24 461h-168.48c-26.25 0-47.6-20.77-47.6-46.29v-317.42c0-25.53 21.35-46.29 47.6-46.29h122.88c5.18 0 10.06 1.96 13.74 5.53l73.71 71.45c3.67 3.55 5.77 8.48 5.77 13.53v273.2c-.01 25.52-21.37 46.29-47.62 46.29zm-168.48-400c-20.73 0-37.6 16.28-37.6 36.29v317.41c0 20.01 16.87 36.29 37.6 36.29h168.49c20.73 0 37.6-16.28 37.6-36.29v-273.2c0-2.39-.97-4.65-2.73-6.35l-73.71-71.45c-1.78-1.72-4.25-2.71-6.78-2.71h-122.87z" fill="#231f20"/></g><g fill="#fff"><path d="m197.46 268.35-13.53-47.85h-17.63v71h12.16v-49.47l13.09 41.56h11.81l13.09-42.5v50.41h12.16v-71h-17.63z"/><path d="m284.39 223.21c-3.37-1.81-7.27-2.71-11.7-2.71h-15.09-7.27-6.1v71h13.38v-27.54h15.09c4.43 0 8.33-.9 11.7-2.69s5.98-4.32 7.84-7.59 2.78-7.07 2.78-11.4-.93-8.14-2.78-11.43c-1.86-3.28-4.48-5.83-7.85-7.64zm-4.27 23.66c-.68 1.34-1.64 2.37-2.86 3.1s-2.63 1.1-4.22 1.1h-15.43v-17.68h15.43c1.63 0 3.05.37 4.27 1.1s2.17 1.77 2.83 3.12c.67 1.35 1 2.9 1 4.66.01 1.74-.33 3.26-1.02 4.6z"/><path d="m342.89 259.81c-1.87-2.8-4.52-4.59-7.93-5.37 3.06-1.2 5.42-3.03 7.08-5.47s2.49-5.31 2.49-8.59v-2.15c0-5.89-1.72-10.44-5.15-13.65s-8.29-4.81-14.58-4.81c-3.84 0-7.32.82-10.45 2.47-3.12 1.64-5.66 4.04-7.59 7.18-1.94 3.14-3.1 6.88-3.49 11.21h13.77c.29-1.66.78-3.08 1.46-4.25s1.52-2.07 2.51-2.69 2.09-.93 3.3-.93c1.85 0 3.3.59 4.32 1.78 1.03 1.19 1.54 2.87 1.54 5.05v1.22c0 2.31-.46 4.11-1.39 5.4s-2.24 1.93-3.93 1.93h-6.01v12.89h6.01c2.08 0 3.69.73 4.81 2.2 1.12 1.46 1.68 3.55 1.68 6.25v1.66c0 2.57-.69 4.57-2.08 5.98-1.38 1.42-3.35 2.12-5.88 2.12-1.37 0-2.57-.27-3.61-.81s-1.9-1.32-2.56-2.34c-.67-1.03-1.1-2.27-1.29-3.74h-13.82c.2 4.13 1.29 7.7 3.27 10.69 1.98 3 4.65 5.27 8.01 6.84 3.35 1.56 7.18 2.34 11.47 2.34 4.39 0 8.15-.76 11.28-2.29 3.12-1.53 5.5-3.76 7.13-6.69s2.44-6.46 2.44-10.6v-2.15c0-4.32-.94-7.88-2.81-10.68z"/></g><g><g><path d="m381.54 135.68h-80.9v-78.41c1.57.68 3.01 1.65 4.25 2.85l73.73 71.46c1.23 1.2 2.22 2.59 2.92 4.1z" fill="#fff"/><path d="m381.54 140.68h-80.9c-2.76 0-5-2.24-5-5v-78.41c0-1.68.85-3.26 2.26-4.18s3.19-1.08 4.73-.41c2.12.92 4.05 2.21 5.74 3.84l73.73 71.46c1.68 1.64 3.02 3.52 3.98 5.59.72 1.55.6 3.36-.32 4.79-.92 1.45-2.51 2.32-4.22 2.32zm-75.9-10h64.87l-64.87-62.87z" fill="#231f20"/></g></g><g opacity=".2"><g><g fill="#231f20"><path d="m382.84 141.51v73.85l-82.2-79.68h80.89c.86 1.81 1.31 3.8 1.31 5.83z"/><path d="m382.85 219.36c-1.02 0-2.02-.39-2.79-1.13l-82.2-79.68c-1.17-1.13-1.53-2.86-.92-4.37s2.08-2.5 3.71-2.5h80.89c1.55 0 2.96.9 3.62 2.3 1.1 2.35 1.69 4.95 1.69 7.53v73.85c0 1.61-.96 3.06-2.44 3.68-.51.22-1.04.32-1.56.32zm-72.33-79.68 68.33 66.23v-64.41c0-.61-.06-1.22-.18-1.83h-68.15z"/></g></g></g></g></svg>