<svg id="Layer_1" enable-background="new 0 0 512 512" height="512" viewBox="0 0 512 512" width="512" xmlns="http://www.w3.org/2000/svg"><g><g><path d="m294.63 56h-122.87c-23.53 0-42.6 18.49-42.6 41.29v317.41c0 22.81 19.07 41.29 42.6 41.29h168.49c23.53 0 42.6-18.49 42.6-41.29v-273.2c0-3.73-1.53-7.3-4.25-9.94l-73.71-71.45c-2.72-2.63-6.41-4.11-10.26-4.11z" fill="#0062a5"/><path d="m340.24 461h-168.48c-26.25 0-47.6-20.77-47.6-46.29v-317.42c0-25.53 21.35-46.29 47.6-46.29h122.88c5.18 0 10.06 1.96 13.74 5.53l73.71 71.45c3.67 3.55 5.77 8.48 5.77 13.53v273.2c-.01 25.52-21.37 46.29-47.62 46.29zm-168.48-400c-20.73 0-37.6 16.28-37.6 36.29v317.41c0 20.01 16.87 36.29 37.6 36.29h168.49c20.73 0 37.6-16.28 37.6-36.29v-273.2c0-2.39-.97-4.65-2.73-6.35l-73.71-71.45c-1.78-1.72-4.25-2.71-6.78-2.71h-122.87z" fill="#231f20"/></g><g fill="#fff"><path d="m238.3 251.8v13.87c0 5.27-1.07 9.92-3.2 13.94s-5.15 7.13-9.06 9.33-8.43 3.3-13.57 3.3c-5.18 0-9.74-1.03-13.7-3.1s-7.02-4.99-9.18-8.76c-2.17-3.78-3.25-8.15-3.25-13.13v-20.95c0-5.27 1.07-9.91 3.2-13.92s5.15-7.1 9.06-9.3 8.43-3.3 13.57-3.3c4.23 0 8.14.87 11.72 2.61s6.57 4.21 8.96 7.4 4.01 6.88 4.86 11.08h-14.45c-.49-1.5-1.29-2.79-2.42-3.88-1.12-1.09-2.44-1.92-3.96-2.49-1.51-.57-3.08-.85-4.71-.85-2.38 0-4.47.52-6.27 1.56-1.81 1.04-3.21 2.52-4.2 4.44s-1.49 4.13-1.49 6.64v20.95c0 2.21.5 4.17 1.51 5.86s2.44 3 4.3 3.91c1.85.91 4 1.37 6.45 1.37 2.41 0 4.52-.5 6.32-1.49 1.81-.99 3.2-2.43 4.17-4.32.98-1.89 1.46-4.12 1.46-6.69v-1.17h-10.74v-12.91z"/><path d="m264.37 291.5h-13.87v-71h13.87z"/><path d="m279.02 220.5h13.38v71h-13.38zm4.89 0h41.75v12.89h-41.75zm0 29.93h36.38v12.89h-36.38z"/></g><g><g><path d="m381.54 135.68h-80.9v-78.41c1.57.68 3.01 1.65 4.25 2.85l73.73 71.46c1.23 1.2 2.22 2.59 2.92 4.1z" fill="#fff"/><path d="m381.54 140.68h-80.9c-2.76 0-5-2.24-5-5v-78.41c0-1.68.85-3.26 2.26-4.18s3.19-1.08 4.73-.41c2.12.92 4.05 2.21 5.74 3.84l73.73 71.46c1.68 1.64 3.02 3.52 3.98 5.59.72 1.55.6 3.36-.32 4.79-.92 1.45-2.51 2.32-4.22 2.32zm-75.9-10h64.87l-64.87-62.87z" fill="#231f20"/></g></g><g opacity=".2"><g><g fill="#231f20"><path d="m382.84 141.51v73.85l-82.2-79.68h80.89c.86 1.81 1.31 3.8 1.31 5.83z"/><path d="m382.85 219.36c-1.02 0-2.02-.39-2.79-1.13l-82.2-79.68c-1.17-1.13-1.53-2.86-.92-4.37s2.08-2.5 3.71-2.5h80.89c1.55 0 2.96.9 3.62 2.3 1.1 2.35 1.69 4.95 1.69 7.53v73.85c0 1.61-.96 3.06-2.44 3.68-.51.22-1.04.32-1.56.32zm-72.33-79.68 68.33 66.23v-64.41c0-.61-.06-1.22-.18-1.83h-68.15z"/></g></g></g></g></svg>