<svg id="Layer_1" enable-background="new 0 0 512 512" height="512" viewBox="0 0 512 512" width="512" xmlns="http://www.w3.org/2000/svg"><g><g><path d="m382.84 141.51v273.2c0 22.81-19.07 41.29-42.6 41.29h-168.49c-23.52 0-42.6-18.48-42.6-41.29v-317.42c0-22.8 19.08-41.29 42.6-41.29h122.88c3.85 0 7.53 1.48 10.25 4.12l73.72 71.45c1.24 1.19 2.23 2.6 2.93 4.11.86 1.81 1.31 3.8 1.31 5.83z" fill="#f05783"/><path d="m340.24 461h-168.49c-26.25 0-47.6-20.77-47.6-46.29v-317.42c0-25.53 21.35-46.29 47.6-46.29h122.88c5.18 0 10.06 1.96 13.74 5.53l73.72 71.45c1.64 1.56 2.98 3.45 3.98 5.57 1.16 2.47 1.78 5.23 1.78 7.95v273.2c-.01 25.53-21.36 46.3-47.61 46.3zm-168.49-400c-20.73 0-37.6 16.28-37.6 36.29v317.41c0 20.01 16.87 36.29 37.6 36.29h168.49c20.73 0 37.6-16.28 37.6-36.29v-273.2c0-1.26-.29-2.54-.83-3.7-.47-1-1.11-1.9-1.87-2.62l-73.74-71.47c-1.8-1.75-4.21-2.71-6.77-2.71z" fill="#231f20"/></g><g fill="#fff"><path d="m213.52 220.5-27.15 71h14.4l3.99-11.38h26.01l3.99 11.38h14.4l-27.15-71zm-4.24 46.73 8.49-24.22 8.49 24.22z"/><path d="m275.09 267.87-15.09-47.37h-13.77l23.64 71h10.45l23.63-71h-13.77z"/><path d="m311.76 220.5h13.87v71h-13.87z"/></g><g><g><path d="m381.54 135.68h-80.9v-78.41c1.57.68 3.01 1.65 4.25 2.85l73.73 71.46c1.23 1.2 2.22 2.59 2.92 4.1z" fill="#fff"/><path d="m381.54 140.68h-80.9c-2.76 0-5-2.24-5-5v-78.41c0-1.68.85-3.26 2.26-4.18s3.19-1.08 4.73-.41c2.12.92 4.05 2.21 5.74 3.84l73.73 71.46c1.68 1.64 3.02 3.52 3.98 5.59.72 1.55.6 3.36-.32 4.79-.92 1.45-2.51 2.32-4.22 2.32zm-75.9-10h64.87l-64.87-62.87z" fill="#231f20"/></g></g><g opacity=".2"><g><g fill="#231f20"><path d="m382.84 141.51v73.85l-82.2-79.68h80.89c.86 1.81 1.31 3.8 1.31 5.83z"/><path d="m382.85 219.36c-1.02 0-2.02-.39-2.79-1.13l-82.2-79.68c-1.17-1.13-1.53-2.86-.92-4.37s2.08-2.5 3.71-2.5h80.89c1.55 0 2.96.9 3.62 2.3 1.1 2.35 1.69 4.95 1.69 7.53v73.85c0 1.61-.96 3.06-2.44 3.68-.51.22-1.04.32-1.56.32zm-72.33-79.68 68.33 66.23v-64.41c0-.61-.06-1.22-.18-1.83h-68.15z"/></g></g></g></g></svg>