<svg id="Layer_1" enable-background="new 0 0 512 512" height="512" viewBox="0 0 512 512" width="512" xmlns="http://www.w3.org/2000/svg"><g><g><path d="m294.63 56h-122.87c-23.53 0-42.6 18.49-42.6 41.29v317.41c0 22.81 19.07 41.29 42.6 41.29h168.49c23.53 0 42.6-18.49 42.6-41.29v-273.2c0-3.73-1.53-7.3-4.25-9.94l-73.71-71.45c-2.72-2.63-6.41-4.11-10.26-4.11z" fill="#264de4"/><path d="m340.24 461h-168.48c-26.25 0-47.6-20.77-47.6-46.29v-317.42c0-25.53 21.36-46.29 47.6-46.29h122.88c5.18 0 10.06 1.96 13.74 5.53l73.71 71.45c3.67 3.55 5.77 8.49 5.77 13.53v273.2c-.01 25.52-21.37 46.29-47.62 46.29zm-168.48-400c-20.74 0-37.6 16.28-37.6 36.29v317.41c0 20.01 16.87 36.29 37.6 36.29h168.49c20.74 0 37.6-16.28 37.6-36.29v-273.2c0-2.39-.97-4.64-2.73-6.35l-73.71-71.45c-1.78-1.72-4.25-2.71-6.78-2.71h-122.87z" fill="#231f20"/></g><g fill="#fff"><path d="m182.64 289.13c-3.84-2.07-6.77-5.08-8.79-9.03-2.02-3.96-3.03-8.73-3.03-14.33v-19.48c0-5.6 1.01-10.38 3.03-14.33 2.02-3.96 4.95-6.97 8.79-9.06 3.84-2.08 8.46-3.12 13.87-3.12 4.46 0 8.45.96 11.96 2.88 3.52 1.92 6.42 4.71 8.72 8.37s3.88 8.08 4.76 13.26h-13.87c-.52-2.34-1.33-4.35-2.42-6.01s-2.41-2.93-3.96-3.81-3.28-1.32-5.2-1.32c-2.51 0-4.64.51-6.4 1.54s-3.1 2.52-4.03 4.49-1.39 4.34-1.39 7.1v19.48c0 2.77.46 5.13 1.39 7.08s2.27 3.44 4.03 4.47 3.89 1.54 6.4 1.54c1.95 0 3.71-.43 5.27-1.29s2.88-2.12 3.96-3.78 1.86-3.68 2.34-6.05h13.87c-.91 5.18-2.51 9.59-4.81 13.26s-5.19 6.45-8.69 8.37-7.48 2.88-11.94 2.88c-5.4-.01-10.02-1.04-13.86-3.11z"/><path d="m244.57 291.21c-3.24-.68-6.28-1.68-9.13-3s-5.4-2.91-7.64-4.76l6.2-11.04c2.73 2.25 5.89 3.98 9.47 5.2s7.26 1.83 11.04 1.83c4.36 0 7.75-.74 10.16-2.22s3.61-3.57 3.61-6.27v-.05c0-1.89-.54-3.38-1.61-4.49s-2.47-1.92-4.2-2.44-3.94-.99-6.64-1.42c-.1-.03-.19-.05-.27-.05s-.17-.02-.27-.05l-1.07-.15c-4.75-.75-8.69-1.68-11.82-2.81s-5.78-3.09-7.96-5.91-3.27-6.81-3.27-11.99v-.05c0-4.59 1.03-8.51 3.08-11.77 2.05-3.25 5.03-5.74 8.94-7.45s8.63-2.56 14.16-2.56c2.54 0 5.13.29 7.79.88 2.65.59 5.25 1.43 7.79 2.54s4.95 2.44 7.23 4l-5.66 11.33c-2.73-1.89-5.59-3.35-8.57-4.39s-5.83-1.56-8.57-1.56c-4.1 0-7.28.68-9.52 2.03-2.25 1.35-3.37 3.25-3.37 5.69v.05c0 2.05.59 3.67 1.76 4.86s2.62 2.06 4.35 2.61c1.72.55 4.15 1.14 7.28 1.76.13.03.26.06.39.07.13.02.26.04.39.07.2.03.38.07.56.12s.37.09.56.12c4.49.88 8.24 1.95 11.25 3.2s5.53 3.27 7.54 6.05c2.02 2.78 3.03 6.58 3.03 11.4v.1c0 4.53-1.06 8.4-3.17 11.62-2.12 3.22-5.2 5.68-9.25 7.37s-8.93 2.54-14.62 2.54c-3.42.01-6.73-.33-9.97-1.01z"/><path d="m304.19 291.21c-3.24-.68-6.28-1.68-9.13-3s-5.4-2.91-7.64-4.76l6.2-11.04c2.73 2.25 5.89 3.98 9.47 5.2s7.26 1.83 11.04 1.83c4.36 0 7.75-.74 10.16-2.22s3.61-3.57 3.61-6.27v-.05c0-1.89-.54-3.38-1.61-4.49s-2.47-1.92-4.2-2.44-3.94-.99-6.64-1.42c-.1-.03-.19-.05-.27-.05s-.17-.02-.27-.05l-1.07-.15c-4.75-.75-8.69-1.68-11.82-2.81s-5.78-3.09-7.96-5.91-3.27-6.81-3.27-11.99v-.05c0-4.59 1.03-8.51 3.08-11.77 2.05-3.25 5.03-5.74 8.94-7.45s8.63-2.56 14.16-2.56c2.54 0 5.13.29 7.79.88 2.65.59 5.25 1.43 7.79 2.54s4.95 2.44 7.23 4l-5.66 11.33c-2.73-1.89-5.59-3.35-8.57-4.39s-5.83-1.56-8.57-1.56c-4.1 0-7.28.68-9.52 2.03-2.25 1.35-3.37 3.25-3.37 5.69v.05c0 2.05.59 3.67 1.76 4.86s2.62 2.06 4.35 2.61c1.72.55 4.15 1.14 7.28 1.76.13.03.26.06.39.07.13.02.26.04.39.07.2.03.38.07.56.12s.37.09.56.12c4.49.88 8.24 1.95 11.25 3.2s5.53 3.27 7.54 6.05c2.02 2.78 3.03 6.58 3.03 11.4v.1c0 4.53-1.06 8.4-3.17 11.62-2.12 3.22-5.2 5.68-9.25 7.37s-8.93 2.54-14.62 2.54c-3.42.01-6.73-.33-9.97-1.01z"/></g><g><g><path d="m381.54 135.68h-80.9v-78.41c1.57.68 3.01 1.65 4.25 2.85l73.73 71.46c1.23 1.2 2.22 2.59 2.92 4.1z" fill="#fff"/><path d="m381.54 140.68h-80.9c-2.76 0-5-2.24-5-5v-78.41c0-1.68.85-3.26 2.26-4.18s3.19-1.07 4.73-.41c2.12.92 4.06 2.21 5.74 3.85l73.73 71.46c1.68 1.64 3.02 3.52 3.98 5.59.72 1.55.6 3.36-.32 4.79-.92 1.44-2.51 2.31-4.22 2.31zm-75.9-10h64.87l-64.87-62.87z" fill="#231f20"/></g></g><g opacity=".2"><g><g fill="#231f20"><path d="m382.84 141.51v73.85l-82.2-79.68h80.89c.86 1.81 1.31 3.8 1.31 5.83z"/><path d="m382.85 219.36c-1.02 0-2.02-.39-2.79-1.13l-82.2-79.68c-1.17-1.13-1.54-2.86-.92-4.37.61-1.51 2.08-2.5 3.71-2.5h80.89c1.55 0 2.96.89 3.62 2.3 1.1 2.35 1.69 4.95 1.69 7.53v73.85c0 1.61-.96 3.06-2.44 3.68-.51.22-1.04.32-1.56.32zm-72.33-79.68 68.33 66.23v-64.41c0-.61-.06-1.22-.18-1.83h-68.15z"/></g></g></g></g></svg>