<svg id="Layer_1" enable-background="new 0 0 512 512" height="512" viewBox="0 0 512 512" width="512" xmlns="http://www.w3.org/2000/svg"><g><g><path d="m294.63 56h-122.87c-23.53 0-42.6 18.49-42.6 41.29v317.41c0 22.81 19.07 41.29 42.6 41.29h168.49c23.53 0 42.6-18.49 42.6-41.29v-273.2c0-3.73-1.53-7.3-4.25-9.94l-73.71-71.45c-2.72-2.63-6.41-4.11-10.26-4.11z" fill="#7542ed"/><path d="m340.24 461h-168.48c-26.25 0-47.6-20.77-47.6-46.29v-317.42c0-25.53 21.35-46.29 47.6-46.29h122.88c5.18 0 10.06 1.96 13.74 5.53l73.71 71.45c3.67 3.55 5.77 8.49 5.77 13.53v273.2c-.01 25.52-21.37 46.29-47.62 46.29zm-168.48-400c-20.73 0-37.6 16.28-37.6 36.29v317.41c0 20.01 16.87 36.29 37.6 36.29h168.49c20.73 0 37.6-16.28 37.6-36.29v-273.2c0-2.39-.97-4.64-2.73-6.35l-73.71-71.45c-1.78-1.72-4.25-2.71-6.78-2.71h-122.87z" fill="#231f20"/></g><g fill="#fff"><path d="m182.63 303.33h-18.49v-94.66h18.49z"/><path d="m215.96 300.17c-5.12-2.76-9.03-6.77-11.72-12.04s-4.04-11.64-4.04-19.11v-25.98c0-7.46 1.35-13.83 4.04-19.11 2.69-5.27 6.6-9.3 11.72-12.08s11.28-4.17 18.49-4.17c5.95 0 11.26 1.28 15.95 3.84s8.56 6.28 11.62 11.17c3.06 4.88 5.18 10.77 6.35 17.68h-18.49c-.69-3.12-1.77-5.79-3.22-8.01-1.45-2.21-3.21-3.91-5.27-5.08s-4.37-1.76-6.93-1.76c-3.34 0-6.18.68-8.53 2.05s-4.13 3.36-5.37 5.99-1.86 5.78-1.86 9.47v25.98c0 3.69.62 6.84 1.86 9.44s3.03 4.59 5.37 5.96 5.19 2.05 8.53 2.05c2.6 0 4.95-.57 7.03-1.73 2.08-1.15 3.84-2.83 5.27-5.05 1.43-2.21 2.47-4.9 3.12-8.07h18.49c-1.22 6.9-3.35 12.79-6.41 17.68s-6.92 8.61-11.59 11.17-9.97 3.84-15.92 3.84c-7.2.01-13.37-1.37-18.49-4.13z"/><path d="m298.55 302.94c-4.32-.91-8.38-2.25-12.17-4-3.8-1.76-7.19-3.87-10.19-6.35l8.27-14.71c3.65 2.99 7.86 5.31 12.63 6.93 4.77 1.63 9.68 2.44 14.71 2.44 5.82 0 10.33-.99 13.54-2.96s4.82-4.76 4.82-8.37v-.07c0-2.52-.72-4.51-2.15-5.99s-3.3-2.56-5.6-3.26c-2.3-.69-5.25-1.32-8.85-1.89-.13-.04-.25-.07-.36-.07s-.23-.02-.36-.07l-1.43-.2c-6.34-1-11.59-2.25-15.76-3.74-4.17-1.5-7.7-4.12-10.61-7.88-2.91-3.75-4.36-9.08-4.36-15.98v-.07c0-6.12 1.37-11.35 4.1-15.69s6.71-7.65 11.91-9.93c5.21-2.28 11.5-3.42 18.88-3.42 3.39 0 6.85.39 10.38 1.17 3.54.78 7 1.91 10.38 3.39 3.39 1.48 6.6 3.26 9.64 5.34l-7.55 15.1c-3.65-2.52-7.45-4.47-11.43-5.86-3.97-1.39-7.78-2.08-11.43-2.08-5.47 0-9.7.9-12.7 2.7-2.99 1.8-4.49 4.33-4.49 7.58v.07c0 2.73.78 4.89 2.34 6.48 1.56 1.58 3.49 2.75 5.79 3.48 2.3.74 5.53 1.52 9.7 2.34.17.04.35.08.52.1s.35.05.52.1c.26.04.51.1.75.16.24.07.49.12.75.16 5.99 1.17 10.99 2.59 15.01 4.26 4.01 1.67 7.37 4.36 10.06 8.07s4.04 8.78 4.04 15.2v.13c0 6.03-1.41 11.2-4.23 15.49-2.82 4.3-6.93 7.57-12.34 9.83-5.4 2.26-11.9 3.39-19.5 3.39-4.5.05-8.92-.41-13.23-1.32z"/></g><g><g><path d="m381.54 135.68h-80.9v-78.41c1.57.68 3.01 1.65 4.25 2.85l73.73 71.46c1.23 1.2 2.22 2.59 2.92 4.1z" fill="#fff"/><path d="m381.54 140.68h-80.9c-2.76 0-5-2.24-5-5v-78.41c0-1.68.85-3.26 2.26-4.18s3.19-1.08 4.73-.41c2.12.92 4.05 2.21 5.74 3.84l73.73 71.46c1.68 1.64 3.02 3.52 3.98 5.59.72 1.55.6 3.36-.32 4.79-.92 1.45-2.51 2.32-4.22 2.32zm-75.9-10h64.87l-64.87-62.87z" fill="#231f20"/></g></g><g opacity=".2"><g><g fill="#231f20"><path d="m382.84 141.51v73.85l-82.2-79.68h80.89c.86 1.81 1.31 3.8 1.31 5.83z"/><path d="m382.85 219.36c-1.02 0-2.02-.39-2.79-1.13l-82.2-79.68c-1.17-1.13-1.53-2.86-.92-4.37s2.08-2.5 3.71-2.5h80.89c1.55 0 2.96.9 3.62 2.3 1.1 2.35 1.69 4.95 1.69 7.53v73.85c0 1.61-.96 3.06-2.44 3.68-.51.22-1.04.32-1.56.32zm-72.33-79.68 68.33 66.23v-64.41c0-.61-.06-1.22-.18-1.83h-68.15z"/></g></g></g></g></svg>