<svg id="Layer_1" enable-background="new 0 0 512 512" height="512" viewBox="0 0 512 512" width="512" xmlns="http://www.w3.org/2000/svg"><g><g><g><path d="m294.63 56h-122.87c-23.53 0-42.6 18.49-42.6 41.29v317.41c0 22.81 19.07 41.29 42.6 41.29h168.49c23.53 0 42.6-18.49 42.6-41.29v-273.2c0-3.73-1.53-7.3-4.25-9.94l-73.71-71.45c-2.72-2.63-6.41-4.11-10.26-4.11z" fill="#34495e"/><path d="m340.24 461h-168.48c-26.25 0-47.6-20.77-47.6-46.29v-317.42c0-25.53 21.36-46.29 47.6-46.29h122.88c5.18 0 10.06 1.96 13.74 5.53l73.71 71.45c3.67 3.55 5.77 8.49 5.77 13.53v273.2c-.01 25.52-21.37 46.29-47.62 46.29zm-168.48-400c-20.74 0-37.6 16.28-37.6 36.29v317.41c0 20.01 16.87 36.29 37.6 36.29h168.49c20.74 0 37.6-16.28 37.6-36.29v-273.2c0-2.39-.97-4.64-2.73-6.35l-73.71-71.45c-1.78-1.72-4.25-2.71-6.78-2.71h-122.87z" fill="#231f20"/></g><g opacity=".2"><g><path d="m300.64 135.68h82.21l-82.21-79.68z" fill="#fff"/><path d="m395.19 140.68h-99.55v-96.49zm-89.55-10h64.87l-64.87-62.87z" fill="#231f20"/></g></g></g><g fill="#fff"><path d="m157.48 228.5h23.52v70.69h16.28v-70.69h23.52v-15.69h-63.32z"/><path d="m224.96 228.5h23.53v70.69h16.27v-70.69h23.53v-15.69h-63.33z"/><path d="m354.52 228.5v-15.69h-40.45-10.34-5.94v86.38h16.28v-34.28h33.92v-15.68h-33.92v-20.73z"/></g><g><g><path d="m381.54 135.68h-80.9v-78.41c1.57.68 3.01 1.65 4.25 2.85l73.73 71.46c1.23 1.2 2.22 2.59 2.92 4.1z" fill="#fff"/><path d="m381.54 140.68h-80.9c-2.76 0-5-2.24-5-5v-78.41c0-1.68.85-3.26 2.26-4.18s3.19-1.08 4.73-.41c2.12.92 4.06 2.21 5.74 3.85l73.73 71.46c1.68 1.64 3.02 3.52 3.98 5.59.72 1.55.6 3.36-.32 4.79-.92 1.44-2.51 2.31-4.22 2.31zm-75.9-10h64.87l-64.87-62.87z" fill="#231f20"/></g></g><g opacity=".2"><g><g fill="#231f20"><path d="m382.84 141.51v73.85l-82.2-79.68h80.89c.86 1.81 1.31 3.8 1.31 5.83z"/><path d="m382.85 219.36c-1.02 0-2.02-.39-2.79-1.13l-82.2-79.68c-1.17-1.13-1.54-2.86-.92-4.37.61-1.51 2.08-2.5 3.71-2.5h80.89c1.55 0 2.96.89 3.62 2.3 1.1 2.35 1.69 4.95 1.69 7.53v73.85c0 1.61-.96 3.06-2.44 3.68-.51.22-1.04.32-1.56.32zm-72.33-79.68 68.33 66.23v-64.41c0-.61-.06-1.22-.18-1.83h-68.15z"/></g></g></g></g></svg>