<svg id="Icons" height="512" viewBox="0 0 60 60" width="512" xmlns="http://www.w3.org/2000/svg"><path d="m1 18v-14a3 3 0 0 1 3-3h14.19a5 5 0 0 1 3.2 1.159l3.218 2.682a5 5 0 0 0 3.202 1.159h28.19a3 3 0 0 1 3 3v9z" fill="#e58b0a"/><path d="m6 16v-3a3 3 0 0 1 3-3h42a3 3 0 0 1 3 3v3z" fill="#fff"/><rect fill="#ffb90b" height="38" rx="3" width="58" x="1" y="15"/><circle cx="30" cy="41" fill="#1ead6f" r="18"/><g fill="#fff"><path d="m40.253 45.11a1 1 0 0 0 -1.346.434 9.991 9.991 0 0 1 -18.775-3l1.161 1.161a1 1 0 0 0 1.414-1.414l-3-3a1 1 0 0 0 -1.414 0l-3 3a1 1 0 0 0 1.414 1.414l1.372-1.372a12 12 0 0 0 22.608 4.121 1 1 0 0 0 -.434-1.344z"/><path d="m44.707 38.293a1 1 0 0 0 -1.414 0l-1.372 1.372a12 12 0 0 0 -22.608-4.121 1 1 0 0 0 1.78.912 9.991 9.991 0 0 1 18.775 3l-1.161-1.161a1 1 0 0 0 -1.414 1.414l3 3a1 1 0 0 0 1.414 0l3-3a1 1 0 0 0 0-1.416z"/></g></svg>